<svg xmlns="http://www.w3.org/2000/svg" width="153.15" height="282.354" viewBox="0 0 153.15 282.354">
  <g id="شعار_لنا_Converted_" data-name="شعار لنا [Converted]" transform="translate(0 0)">
    <path id="Path_123750" data-name="Path 123750" d="M530.954,459.994c-3.824-9.53-9.773-19.849-10.866-30.29-1.518-14.265,5.888-27.68,14.811-38.242,29.015-23.916,32.05-64.162,32.05-64.162-3.217,35.085-48.076,48.5-64.465,52.2-2.367.243-5.827,1.032-13.294,2.792-4.674,1.093-14.2,1.7-24.706,5.524-15.054,5.524-17.6,8.134-27.437,18.089-19.242,19.485-22.52,43.159-23.249,51.111a74.174,74.174,0,0,1,25.555-31.383,73.4,73.4,0,0,1,33.871-12.626s-27.68,18.7-26.83,55.724c.607,25.8,25.252,60.277,40.124,78.851.668,6.617,1.335,13.233,1.942,19.91l5.281,17.239c1.639-1.639,3.217-3.217,4.856-4.917-.3.486-.607.971-.971,1.457A16.6,16.6,0,0,1,500,578.544l.061-.061a6.439,6.439,0,0,0,.911-.911h0c1.882-1.76,4.006-3.46,5.645-5.16,2.732-2.732,6.131-5.4,8.5-8.5,4.8-4.613,9.409-9.469,13.779-14.326a65.387,65.387,0,0,0,11.533-17.6c4.613-10.623,7.284-23.674,4.37-35.146C541.759,484.214,535.689,471.952,530.954,459.994Z" transform="translate(-413.8 -312.7)" fill="#ffd933"/>
    <circle id="Ellipse_499" data-name="Ellipse 499" cx="28.287" cy="28.287" r="28.287" transform="matrix(0.195, -0.981, 0.981, 0.195, 43.421, 55.493)" fill="#ffd933"/>
    <path id="Path_123751" data-name="Path 123751" d="M472.3,467.7" transform="translate(-436.79 -367.875)" fill="#f62a66"/>
    <path id="Path_123752" data-name="Path 123752" d="M454.1,483.5" transform="translate(-429.637 -374.085)" fill="#ffd933"/>
    <g id="Group_21256" data-name="Group 21256" transform="translate(88.151 76.819)">
      <path id="Path_123753" data-name="Path 123753" d="M597.614,572.145a63.975,63.975,0,0,1-11.533,17.6c-4.431,4.856-9.045,9.712-13.84,14.386-2.853,2.732-5.767,5.463-8.68,8.013,1.76-1.578,3.46-3.339,5.1-5.038v-.061c.85-1.032,1.76-2,2.61-3.035a59.616,59.616,0,0,0,4.31-6.192l.546-.911a72.057,72.057,0,0,0,3.642-7.163,64.787,64.787,0,0,0,5.22-23.37c.243-7.891-1.76-14.447-4.613-21.731-5.4-13.961-10.987-27.8-16.571-41.641-2.853-7.1-5.342-13.84-4.674-21.61,1.093-13.233,8.559-24.584,17.178-34.3,4.674-5.22,11.9-11.473,16.207-16.025a10.945,10.945,0,0,0,1.153-1.275c-.364.425-.728.85-1.153,1.275-9.166,10.744-16.936,24.4-15.418,38.97,1.093,10.38,7.041,20.7,10.866,30.29,4.735,11.958,10.8,24.22,13.961,36.724C604.9,548.472,602.227,561.522,597.614,572.145Z" transform="translate(-559.02 -429.8)" fill="#3d3d3d"/>
    </g>
    <g id="Group_21257" data-name="Group 21257" transform="translate(69.912 166.961)">
      <path id="Path_123754" data-name="Path 123754" d="M564.379,655.209a26.4,26.4,0,0,1-1.942,4.249c-.364.607-.728,1.214-1.153,1.821h0l-.364.546c-.121.182-.3.364-.425.546-2.367,3.1-5.767,5.767-8.5,8.5-1.7,1.7-3.764,3.339-5.645,5.16h0l-.911.911-.061.061a23.746,23.746,0,0,0-2.367,2.732c.364-.486.668-.971.971-1.457a24.851,24.851,0,0,0,3.278-16.693v-.061c-1.214-9.409-6.434-18.818-10.8-26.891-3.642-6.677-7.77-14.022-7.466-21.853.243-6.616,3.217-12.322,7.527-17.179,5.1-5.767,13.354-12.747,17.361-17.3C531.479,603.734,573.363,629.107,564.379,655.209Z" transform="translate(-528.974 -578.3)" fill="#3d3d3d"/>
    </g>
    <g id="Group_21258" data-name="Group 21258" transform="translate(19.695 93.633)">
      <path id="Path_123755" data-name="Path 123755" d="M514.2,627.95a1.713,1.713,0,0,1-.425.668h0a12.858,12.858,0,0,1-.911.911l-.061.061c-.486.425-.971.789-1.214,1.032l-.182.182c-2.064,2.125-4.188,4.249-6.252,6.313-1.942,1.942-3.824,3.824-5.827,5.767l-.728.728a21.463,21.463,0,0,0-2.732,2.61,34.112,34.112,0,0,0,.546-3.46c1.457-13.476-4.978-26.284-13.112-36.785-9.53-12.322-21.428-22.824-28.651-36.785a76.706,76.706,0,0,1-8.316-38.606,75.589,75.589,0,0,1,13.294-38.97,91.582,91.582,0,0,1,9.894-11.776c0-.061.668-.728,2.064-2.125l.425-.425c.971-.971,1.942-1.942,2.853-2.914,5.706-5.767,11.351-11.715,17.6-16.875-4.674,4.006-8.5,9.045-12.869,13.476a1.269,1.269,0,0,0-.243.364,84.573,84.573,0,0,0-5.949,9.409,75.689,75.689,0,0,0-7.77,22.52,76.5,76.5,0,0,0,5.4,43.523c10.137,23.188,39.638,41.52,43.523,67.318v.061A36.5,36.5,0,0,1,514.2,627.95Z" transform="translate(-446.246 -457.5)" fill="#3d3d3d"/>
    </g>
    <path id="Path_123756" data-name="Path 123756" d="M545.939,572.655a4.22,4.22,0,0,0,2.671,1.457h.061a3.931,3.931,0,0,0,1.457-.061,4.527,4.527,0,0,0,1.882-.911,4.635,4.635,0,0,0,1.214-1.7,3.8,3.8,0,0,0,.243-1.821v-.061a4.316,4.316,0,0,0-1.032-2.428,4.263,4.263,0,0,0-6.5,5.524Zm0-3.581a8.658,8.658,0,0,1,1.639.546c.3.182.728.3.668.546a2.97,2.97,0,0,1-.728.789,6.16,6.16,0,0,1-1.093.789,3.223,3.223,0,0,1-.546-2.064A2.068,2.068,0,0,1,545.939,569.073Zm2.367-2.367a5.537,5.537,0,0,1,.3,2.489,4.964,4.964,0,0,1-2.367-.789,4.244,4.244,0,0,1,.789-1.032A3.212,3.212,0,0,1,548.306,566.706Zm3.278.789c-.364.364-1.578,1.518-1.942,1.457,0,0-.121,0-.121-.061-.364-.121-.546-2.064-.546-2.367h.486A4.022,4.022,0,0,1,551.584,567.495Zm.546,3.156c-.546-.182-1.7-.425-2-.911a3.363,3.363,0,0,1,.789-.85,4.542,4.542,0,0,1,1.093-.789,3.394,3.394,0,0,1,.546,2.125c0,.182-.061.364-.061.546h0A.862.862,0,0,0,552.13,570.651Zm-1.943,2.489a6.2,6.2,0,0,1-.364-2.489c.243-.3,2.185.546,2.428.728a4.244,4.244,0,0,1-.789,1.032A3.437,3.437,0,0,1,550.188,573.14Zm-3.217-.728-.061-.061a5.332,5.332,0,0,1,2-1.517c.182.061.364.85.364,1.093a8.853,8.853,0,0,0,.182,1.335c-.061,0-.121.061-.182.061h-.3A3.216,3.216,0,0,1,546.97,572.412Z" transform="translate(-465.327 -406.362)" fill="#3d3d3d" fill-rule="evenodd"/>
    <path id="Path_123757" data-name="Path 123757" d="M506.939,606.315a4.21,4.21,0,0,0,3.217,1.457h0a4.683,4.683,0,0,0,.911-.121,4.528,4.528,0,0,0,1.882-.911,4.635,4.635,0,0,0,1.214-1.7,4.171,4.171,0,0,0,.182-2.428v-.061a4.3,4.3,0,0,0-.911-1.821,4.189,4.189,0,0,0-6.009-.425A4.238,4.238,0,0,0,506.939,606.315Zm0-3.642a8.658,8.658,0,0,1,1.639.546c.3.182.728.3.668.546a2.97,2.97,0,0,1-.728.789,6.163,6.163,0,0,1-1.093.789,3.222,3.222,0,0,1-.546-2.064C506.878,603.1,506.939,602.916,506.939,602.673Zm2.367-2.367a5.536,5.536,0,0,1,.3,2.489,4.964,4.964,0,0,1-2.367-.789,4.243,4.243,0,0,1,.789-1.032A3.212,3.212,0,0,1,509.306,600.306Zm3.278.789a7.52,7.52,0,0,1-1.882,1.457s-.121,0-.121-.061c-.364-.121-.546-2.064-.546-2.367h.486A4.056,4.056,0,0,1,512.584,601.095Zm.607,3.156c-.546-.182-1.7-.425-2-.911a3.363,3.363,0,0,1,.789-.85,4.547,4.547,0,0,1,1.093-.789,3.394,3.394,0,0,1,.546,2.125c0,.182-.061.364-.061.546h0A2.386,2.386,0,0,0,513.191,604.251Zm-2,2.489a6.2,6.2,0,0,1-.364-2.489c.243-.3,2.185.546,2.428.728a4.243,4.243,0,0,1-.789,1.032A2.76,2.76,0,0,1,511.188,606.74Zm-3.217-.728-.061-.061a5.332,5.332,0,0,1,2-1.518c.182.061.364.85.364,1.093a8.865,8.865,0,0,0,.182,1.335c-.061,0-.121.061-.182.061h-.3A3.216,3.216,0,0,1,507.97,606.012Z" transform="translate(-450 -419.566)" fill="#3d3d3d" fill-rule="evenodd"/>
    <path id="Path_123758" data-name="Path 123758" d="M502.659,589.878c.668.121,1.578-.607,2.307-1.153a2.971,2.971,0,0,1-.789-.728,4.216,4.216,0,0,1-.85-1.518,5.612,5.612,0,0,1-.243-1.76,4.21,4.21,0,0,1,.486-1.7,3.986,3.986,0,0,1,1.093-1.4,4.217,4.217,0,0,1,1.518-.85,5.612,5.612,0,0,1,1.76-.243,4.21,4.21,0,0,1,1.7.486,3.986,3.986,0,0,1,1.4,1.093,3.758,3.758,0,0,1,.668,1.032l17.057-14.629a4.46,4.46,0,0,1-1.821-2.367,5.614,5.614,0,0,1-.243-1.76,4.211,4.211,0,0,1,.486-1.7,3.987,3.987,0,0,1,1.093-1.4,4.217,4.217,0,0,1,1.518-.85,5.614,5.614,0,0,1,1.76-.243,4.211,4.211,0,0,1,1.7.486,3.986,3.986,0,0,1,1.4,1.093c.121.182.243.3.364.486.971-.971,2-1.943,2.914-3.035.85-1.093.668-1.093.668-1.639,0-.121.061-.728.061-.789-.061-.486-.121-.364-.3-.789A29.971,29.971,0,0,0,533.678,552c-.668.061-2.367,1.457-3.1,1.942-3.217,2.125-7.466,1.76-10.926,4.492a46.08,46.08,0,0,0-6.313,5.342c-4.492,4.735-4.249,9.894-6.009,11.473a37.312,37.312,0,0,0-3.824,3.763,35.037,35.037,0,0,0-4.128,5.706C498.35,586.661,501.992,589.756,502.659,589.878ZM518.32,565.9l-2.246-3.642c.911-.789,7.466-6.252,8.984-4.674,1.335,1.457-1.214,3.278-2.125,4.188C521.416,563.23,519.838,564.565,518.32,565.9Zm-6.738,1.335a21.6,21.6,0,0,1,3.46-4.067l1.7,4.006-5.1,4.431C509.033,573.063,511.158,568.025,511.583,567.236Z" transform="translate(-447.36 -401.004)" fill="#3d3d3d" fill-rule="evenodd"/>
  </g>
</svg>
